<svg xmlns="http://www.w3.org/2000/svg" fill="none" class="w-[176px] h-[36px]" viewBox="0 0 176 36"><path fill="#EFB10F" d="M29.753 11.725a5.64 5.64 0 1 1-11.28 0 5.64 5.64 0 0 1 11.28 0Z"/><path fill="#EFB10F" fill-rule="evenodd" d="M7.683 22.433V.854h9.809v21.579a4.904 4.904 0 0 0 4.904 4.904v9.809c-8.125 0-14.713-6.587-14.713-14.713Z" clip-rule="evenodd"/><path fill="#EFB10F" fill-rule="evenodd" d="M12.26 16.711H0V6.903h12.26v9.808Z" clip-rule="evenodd"/><path fill="#262626" fill-rule="evenodd" d="m66.127 8.266.122 19.144-2.199.014-.122-19.144 2.2-.014Zm104.085 6.212v6.083a4.79 4.79 0 0 0 4.789 4.788v2.2a6.988 6.988 0 0 1-6.987-6.988V8.273h2.198v4.006h4.583v2.199h-4.583Zm-130.54-.062v6.113c0 2.618 2.144 4.758 4.809 4.758v2.2c-3.861 0-7.008-3.108-7.008-6.958V8.303h2.199v3.914h4.63v2.199h-4.63Zm65.824 0v6.113c0 2.618 2.144 4.758 4.809 4.758v2.2c-3.861 0-7.009-3.108-7.009-6.958V8.303h2.2v3.914h4.63v2.199h-4.63Zm-51.973-.18a5.615 5.615 0 1 0 0 11.23 5.615 5.615 0 0 0 0-11.23Zm5.614.181V12.6h2.2v14.861h-2.2v-2.175a7.814 7.814 0 1 1 0-10.869Zm11.986 6.013H84.61l-.091-1.183a7.82 7.82 0 0 0-7.801-7.21 7.813 7.813 0 0 0-7.824 7.815c0 4.32 3.5 7.813 7.824 7.813a7.822 7.822 0 0 0 7.104-4.527l-1.993-.929a5.623 5.623 0 0 1-5.111 3.257 5.616 5.616 0 0 1-5.595-5.036Zm5.595-6.193a5.619 5.619 0 0 0-5.387 3.994h10.775a5.627 5.627 0 0 0-5.388-3.994Zm43.972 0a5.615 5.615 0 1 0 0 11.23 5.615 5.615 0 0 0 0-11.23Zm-5.615 11.049a7.814 7.814 0 1 0 0-10.869V12.6h-2.199v20.59h2.199v-7.904Zm22.752-11.05c-3.164 0-5.704 2.528-5.704 5.616 0 3.087 2.54 5.614 5.704 5.614 3.164 0 5.704-2.527 5.704-5.614 0-3.088-2.54-5.615-5.704-5.615Zm-7.903 5.616c0-4.33 3.552-7.814 7.903-7.814 4.351 0 7.903 3.484 7.903 7.814 0 4.329-3.552 7.813-7.903 7.813-4.351 0-7.903-3.484-7.903-7.813Zm28.695-5.615c-2.451 0-4.451 2.001-4.451 4.474v8.75h-2.199v-14.86h2.199v1.153a6.61 6.61 0 0 1 4.451-1.716c3.674 0 6.65 2.995 6.65 6.673v8.75h-2.199v-8.75c0-2.473-2-4.474-4.451-4.474Zm-64.645.056c-2.464 0-4.458 1.992-4.458 4.435v7.846h-.045v.843h-2.199V12.66h2.2v1.183a6.648 6.648 0 0 1 4.502-1.75c3.67 0 6.657 2.97 6.657 6.635v8.69h-2.199v-8.69c0-2.443-1.994-4.436-4.458-4.436Zm53.149 13.168v-15.22h2.199v15.22h-2.199Z" clip-rule="evenodd"/><path fill="#262626" d="M149.645 9.191a1.476 1.476 0 1 1-2.952 0 1.476 1.476 0 0 1 2.952 0Z"/></svg>